<?xml version="1.0" encoding="UTF-8" standalone="no"?>
<svg width="214px" height="54px" viewBox="0 0 214 54" version="1.1" xmlns="http://www.w3.org/2000/svg" xmlns:xlink="http://www.w3.org/1999/xlink" xmlns:sketch="http://www.bohemiancoding.com/sketch/ns">
    <!-- Generator: Sketch 3.3 (11970) - http://www.bohemiancoding.com/sketch -->
    <title>Button - Google Copy</title>
    <desc>Created with Sketch.</desc>
    <defs>
        <linearGradient x1="60.1573701%" y1="91.8476975%" x2="33.5579439%" y2="-59.5891331%" id="linearGradient-1">
            <stop stop-color="#D6FFA1" offset="0%"></stop>
            <stop stop-color="#93E2A7" offset="32.64%"></stop>
            <stop stop-color="#00A3B5" offset="100%"></stop>
        </linearGradient>
        <linearGradient x1="-32.1721676%" y1="-129.73572%" x2="80.1668869%" y2="113.997954%" id="linearGradient-2">
            <stop stop-color="#FF177B" offset="0%"></stop>
            <stop stop-color="#FFA976" offset="67.21%"></stop>
            <stop stop-color="#FFEC73" offset="100%"></stop>
        </linearGradient>
        <linearGradient x1="50.8193668%" y1="74.6634124%" x2="-0.0289932314%" y2="-29.3364075%" id="linearGradient-3">
            <stop stop-color="#63FFD4" offset="0%"></stop>
            <stop stop-color="#32A0BA" offset="48.54%"></stop>
            <stop stop-color="#1262A9" offset="83.49%"></stop>
            <stop stop-color="#064AA2" offset="100%"></stop>
        </linearGradient>
        <linearGradient x1="119.507988%" y1="35.5351563%" x2="-23.112411%" y2="61.0134747%" id="linearGradient-4">
            <stop stop-color="#FF4521" offset="0%"></stop>
            <stop stop-color="#D43E65" offset="34.11%"></stop>
            <stop stop-color="#9F36B9" offset="79.35%"></stop>
            <stop stop-color="#8A33DB" offset="100%"></stop>
        </linearGradient>
    </defs>
    <g id="Page-1" stroke="none" stroke-width="1" fill="none" fill-rule="evenodd" sketch:type="MSPage">
        <g id="CEX-Mobile-Page" sketch:type="MSArtboardGroup" transform="translate(-1009.000000, -488.000000)">
            <g id="Button---Google-Copy" sketch:type="MSLayerGroup" transform="translate(1009.000000, 488.000000)">
                <g id="Group" sketch:type="MSShapeGroup">
                    <rect id="Button" fill="#2D2D2D" x="11" y="0" width="203" height="53.8169935" rx="6.7200001"></rect>
                    <path d="M0,7.00802483 C0,3.13759959 3.13086715,0 6.99122634,0 L53.9,0 L53.9,53.8169935 L6.99122634,53.8169935 C3.13007865,53.8169935 0,50.6909479 0,46.8089686 L0,7.00802483 Z" id="red" fill="#1D1D1D"></path>
                    <path d="M31.43,28.6558017 L36.12,23.9031322 L31.43,28.6558017 L16.31,13.5590867 L31.43,28.6558017 L16.31,43.7525168 L31.43,28.6558017 L36.19,33.4084713 L31.43,28.6558017 Z" id="Shape"></path>
                    <path d="M36.12,23.9031322 L17.71,13.8386555 C17.22,13.5590867 16.73,13.4891945 16.31,13.6289789 L31.43,28.6558017 L36.12,23.9031322 L36.12,23.9031322 Z" id="Shape" fill="url(#linearGradient-1)"></path>
                    <path d="M36.19,33.4084713 L42.49,29.9837535 C43.75,29.2848315 43.75,28.1665563 42.49,27.4676343 L36.19,23.9730244 L31.43,28.6558017 L36.19,33.4084713 L36.19,33.4084713 Z" id="Shape" fill="url(#linearGradient-2)"></path>
                    <path d="M16.31,13.5590867 C15.75,13.7687633 15.4,14.3279009 15.4,15.1666072 L15.4,42.1449962 C15.4,42.9837026 15.75,43.5428402 16.31,43.7525168 L31.43,28.6558017 L16.31,13.5590867 L16.31,13.5590867 Z" id="Shape" fill="url(#linearGradient-3)"></path>
                    <path d="M16.31,43.7525168 C16.73,43.8923012 17.22,43.822409 17.71,43.5428402 L36.12,33.4084713 L31.43,28.6558017 L16.31,43.7525168 L16.31,43.7525168 Z" id="Shape" fill="url(#linearGradient-4)"></path>
                    <g id="google-play" transform="translate(64.600000, 24.321025)" fill="#FFFFFF">
                        <path d="M118.105645,23.7633478 L126,5.59137594 L123.428862,5.59137594 L119.777419,14.65153 L119.725806,14.65153 L115.971731,5.59137594 L113.4,5.59137594 L118.594482,17.4057408 L115.663242,23.7633478 L118.105645,23.7633478" id="Fill-3"></path>
                        <path d="M107.1,5.59137594 C103.940555,5.59137594 102.424542,7.4741963 101.988348,8.61867874 L104.145613,9.5342647 C104.5824,8.36395804 105.8412,7.72833009 107.151561,7.72833009 C108.924193,7.72833009 110.439613,8.87281254 110.439613,10.7556329 L110.439613,11.1118897 C109.951265,10.8319317 108.718542,10.3483145 107.022955,10.3483145 C104.068568,10.3483145 101.5,11.874878 101.5,14.6985217 C101.5,17.2938557 103.631781,18.8708938 106.200942,18.8708938 C108.3588,18.8708938 109.643084,17.776886 110.336491,16.7339397 L110.439613,16.7339397 L110.439613,18.4635754 L112.7,18.4635754 L112.7,10.9334679 C112.7,7.42313477 110.1824,5.59137594 107.1,5.59137594 L107.1,5.59137594 Z M106.586168,16.7339397 C105.353445,16.7339397 103.966039,16.0724875 103.966039,14.7495832 C103.966039,13.6045138 104.942142,12.2821964 107.434258,12.2821964 C109.437433,12.2821964 110.439613,13.0956593 110.439613,13.0956593 C110.439613,15.1310773 108.461329,16.7339397 106.586168,16.7339397 L106.586168,16.7339397 Z" id="Fill-2"></path>
                        <path d="M98,0.698921993 L100.1,0.698921993 L100.1,18.8708938 L98,18.8708938 L98,0.698921993 Z" id="Fill-1"></path>
                        <path d="M90.2045894,0.698921993 L84,0.698921993 L84,18.8708938 L86.3394065,18.8708938 L86.3394065,11.5107622 L90.2045894,11.5107622 C93.2297447,11.5107622 95.9,9.27754481 95.9,6.10513484 C95.9,2.93272488 93.2297447,0.698921993 90.2045894,0.698921993 L90.2045894,0.698921993 Z M90.255038,9.27754481 L86.3394065,9.27754481 L86.3394065,2.93272488 L90.255038,2.93272488 C92.3398551,2.93272488 93.5095583,4.65828637 93.5095583,6.10513484 C93.5095583,7.55139778 92.3398551,9.27754481 90.255038,9.27754481 L90.255038,9.27754481 Z" id="Fill-4"></path>
                        <path d="M67.5399088,12.6827896 C67.4692486,10.3218013 69.400037,9.11873884 70.7896865,9.11873884 C71.873142,9.11873884 72.7911351,9.65111856 73.097329,10.4143891 L67.5399088,12.6827896 L67.5399088,12.6827896 Z M71.0016669,18.9776012 C73.8510372,18.9776012 75.499185,17.2647273 76.1822331,16.2699874 L74.0630176,14.8811707 C73.3564162,15.8996363 72.3907276,16.5708977 71.0016669,16.5708977 C69.6120175,16.5708977 68.6227755,15.9459302 67.987423,14.7191421 L76.3,11.3402668 L76.0173594,10.6458585 C75.499185,9.28076745 73.9216974,6.75775048 70.695473,6.75775048 C67.492802,6.75775048 64.8318588,9.23447356 64.8318588,12.8679652 C64.8318588,16.2931343 67.4692486,18.9776012 71.0016669,18.9776012 L71.0016669,18.9776012 Z" id="Fill-5"></path>
                        <path d="M60.7812661,18.6072501 L63.5128695,18.6072501 L63.5128695,0.64811445 L60.7812661,0.64811445 L60.7812661,18.6072501 Z" id="Path"></path>
                        <path d="M52.9862747,24.4622698 C56.1889457,24.4622698 58.8969956,22.6110929 58.8969956,18.0980173 L58.8969956,7.1281016 L56.3067126,7.1281016 L56.3067126,8.12342022 L56.212499,8.12342022 C55.6001111,7.40586493 54.4224421,6.75775048 52.9391679,6.75775048 C49.8307105,6.75775048 46.9813402,9.44279606 46.9813402,12.8911121 C46.9813402,16.3162813 49.8307105,18.9776012 52.9391679,18.9776012 C54.4224421,18.9776012 55.6001111,18.3294868 56.212499,17.5887845 L56.3067126,17.5887845 L56.3067126,18.4683684 C56.3067126,20.8056312 55.03483,22.0555662 52.9862747,22.0555662 C51.3139846,22.0555662 50.2782247,20.875072 49.8542638,19.8803321 L47.4753724,20.8519251 C48.1584204,22.4722112 49.9720307,24.4622698 52.9862747,24.4622698 Z M53.1747017,16.5708977 C51.2904312,16.5708977 49.7129436,15.0200524 49.7129436,12.8911121 C49.7129436,10.7384463 51.2904312,9.16503273 53.1747017,9.16503273 C55.03483,9.16503273 56.4951396,10.7384463 56.4951396,12.8911121 C56.4951396,15.0200524 55.03483,16.5708977 53.1747017,16.5708977 Z" id="Path"></path>
                        <path d="M39.6103096,18.9776012 C43.0485144,18.9776012 45.8507779,16.3857221 45.8507779,12.8679652 C45.8507779,9.32706134 43.0485144,6.75775048 39.6103096,6.75775048 C36.1721048,6.75775048 33.3698413,9.32706134 33.3698413,12.8679652 C33.3698413,16.3857221 36.1721048,18.9776012 39.6103096,18.9776012 Z M39.6103096,16.5708977 C37.7260391,16.5708977 36.1014447,15.0431993 36.1014447,12.8679652 C36.1014447,10.6690055 37.7260391,9.16503273 39.6103096,9.16503273 C41.4939913,9.16503273 43.1191746,10.6690055 43.1191746,12.8679652 C43.1191746,15.0431993 41.4939913,16.5708977 39.6103096,16.5708977 Z" id="Path"></path>
                        <path d="M25.9988108,18.9776012 C29.4370155,18.9776012 32.239279,16.3857221 32.239279,12.8679652 C32.239279,9.32706134 29.4370155,6.75775048 25.9988108,6.75775048 C22.560606,6.75775048 19.7577536,9.32706134 19.7577536,12.8679652 C19.7577536,16.3857221 22.560606,18.9776012 25.9988108,18.9776012 Z M25.9988108,16.5708977 C24.1145403,16.5708977 22.4899458,15.0431993 22.4899458,12.8679652 C22.4899458,10.6690055 24.1145403,9.16503273 25.9988108,9.16503273 C27.8824924,9.16503273 29.5076757,10.6690055 29.5076757,12.8679652 C29.5076757,15.0431993 27.8824924,16.5708977 25.9988108,16.5708977 Z" id="Path"></path>
                        <path d="M9.79643998,18.9776012 C12.6699525,18.9776012 14.8362747,18.0517234 16.5315293,16.3162813 C18.2744795,14.6034074 18.8162072,12.1967038 18.8162072,10.2523604 C18.8162072,9.65111856 18.7691005,9.09559189 18.6748869,8.632653 L9.79643998,8.632653 L9.79643998,11.2245321 L16.1075684,11.2245321 C15.9191414,12.6827896 15.4251092,13.7469704 14.671401,14.4876726 C13.7528192,15.3904035 12.3160629,16.3857221 9.79643998,16.3857221 C5.91072096,16.3857221 2.87292364,13.3077571 2.87292364,9.48908995 C2.87292364,5.67042276 5.91072096,2.5924578 9.79643998,2.5924578 C11.8926909,2.5924578 13.4230718,3.40202219 14.5536341,4.44363469 L16.4137624,2.61560474 C14.8362747,1.13420029 12.7400238,-5.68434189e-14 9.79643998,-5.68434189e-14 C4.47455355,-5.68434189e-14 -1.13686838e-13,4.25845914 -1.13686838e-13,9.48908995 C-1.13686838e-13,14.7191421 4.47455355,18.9776012 9.79643998,18.9776012 L9.79643998,18.9776012 Z" id="Path"></path>
                    </g>
                    <path d="M71.5825042,16.247025 C71.4986496,16.3562321 71.3819841,16.4772682 71.2325042,16.6101368 C71.0830243,16.7430055 70.8907085,16.8667717 70.6555511,16.9814391 C70.4203937,17.0961066 70.1378444,17.1925714 69.8078948,17.2708365 C69.4779453,17.3491016 69.0905793,17.3882336 68.6457855,17.3882336 C68.1463038,17.3882336 67.6878448,17.3026893 67.2703948,17.1315982 C66.8529448,16.960507 66.4947453,16.7129746 66.1957855,16.3889935 C65.8968256,16.0650125 65.6644061,15.6664125 65.4985198,15.1931817 C65.3326336,14.7199509 65.2496917,14.1793838 65.2496917,13.5714643 L65.2496917,13.0472728 C65.2496917,12.4429934 65.3244305,11.9033364 65.4739105,11.4282855 C65.6233904,10.9532346 65.8384924,10.5519045 66.119223,10.2242831 C66.3999535,9.89666183 66.7426584,9.64730934 67.147348,9.4762182 C67.5520375,9.30512707 68.0114079,9.21958278 68.525473,9.21958278 C69.0103712,9.21958278 69.4332837,9.28237593 69.794223,9.4079641 C70.1551623,9.53355228 70.4595863,9.70919107 70.7075042,9.93488576 C70.9554221,10.1605804 71.1504722,10.4290439 71.2926605,10.7402842 C71.4348487,11.0515244 71.5296394,11.3927915 71.5770355,11.7640957 L70.2207855,11.7640957 C70.1879728,11.5566022 70.1332858,11.3654926 70.056723,11.1907612 C69.9801601,11.0160298 69.8753434,10.8649623 69.7422698,10.737554 C69.6091962,10.6101457 69.4451354,10.5100407 69.2500823,10.4372359 C69.0550293,10.3644312 68.8226097,10.3280294 68.5528167,10.3280294 C68.2283359,10.3280294 67.9466981,10.3880924 67.7078948,10.5082202 C67.4690916,10.628348 67.2703956,10.8039868 67.1118011,11.0351419 C66.9532065,11.2662969 66.8347181,11.5502311 66.7563323,11.886953 C66.6779465,12.223675 66.6387542,12.6068041 66.6387542,13.0363521 L66.6387542,13.5714643 C66.6387542,14.0082927 66.6861496,14.3950621 66.7809417,14.731784 C66.8757338,15.0685059 67.0115398,15.3515301 67.1883636,15.580865 C67.3651874,15.8101999 67.5802894,15.9849287 67.8336761,16.1050565 C68.0870628,16.2251843 68.3741693,16.2852473 68.6950042,16.2852473 C68.9319846,16.2852473 69.1352377,16.2697765 69.3047698,16.2388345 C69.4743019,16.2078925 69.6173995,16.1687605 69.7340667,16.1214375 C69.850734,16.0741144 69.9464361,16.0222418 70.0211761,15.9658181 C70.095916,15.9093944 70.1569831,15.8557018 70.2043792,15.8047384 L70.2043792,14.2485449 L68.5637542,14.2485449 L68.5637542,13.2001619 L71.5825042,13.2001619 L71.5825042,16.247025 Z M77.756723,13.7298138 L74.4864105,13.7298138 L74.4864105,16.1760407 L78.3090667,16.1760407 L78.3090667,17.279027 L73.1028167,17.279027 L73.1028167,9.32878935 L78.2707855,9.32878935 L78.2707855,10.4426963 L74.4864105,10.4426963 L74.4864105,12.6377482 L77.756723,12.6377482 L77.756723,13.7298138 Z M85.1887542,10.4426963 L82.7059417,10.4426963 L82.7059417,17.279027 L81.3332855,17.279027 L81.3332855,10.4426963 L78.872348,10.4426963 L78.872348,9.32878935 L85.1887542,9.32878935 L85.1887542,10.4426963 Z M90.4825042,17.279027 L89.1043792,17.279027 L89.1043792,9.32878935 L90.4825042,9.32878935 L90.4825042,17.279027 Z M97.9364105,10.4426963 L95.453598,10.4426963 L95.453598,17.279027 L94.0809417,17.279027 L94.0809417,10.4426963 L91.6200042,10.4426963 L91.6200042,9.32878935 L97.9364105,9.32878935 L97.9364105,10.4426963 Z M108.124692,13.5114006 C108.124692,14.11568 108.045396,14.6571571 107.886801,15.1358482 C107.728207,15.6145394 107.504901,16.0204197 107.216879,16.3535014 C106.928857,16.6865831 106.582506,16.9423059 106.177817,17.1206775 C105.773127,17.2990491 105.324694,17.3882336 104.832504,17.3882336 C104.34396,17.3882336 103.89735,17.2990491 103.49266,17.1206775 C103.087971,16.9423059 102.738886,16.6865831 102.445395,16.3535014 C102.151904,16.0204197 101.924041,15.6145394 101.761801,15.1358482 C101.599561,14.6571571 101.518442,14.11568 101.518442,13.5114006 L101.518442,13.1073364 C101.518442,12.503057 101.599561,11.9606699 101.761801,11.4801586 C101.924041,10.9996473 102.150081,10.5919469 102.439926,10.2570451 C102.729771,9.92214332 103.077033,9.66551047 103.481723,9.48713886 C103.886412,9.30876725 104.333023,9.21958278 104.821567,9.21958278 C105.313757,9.21958278 105.763101,9.30876725 106.169614,9.48713886 C106.576126,9.66551047 106.9243,9.92214332 107.214145,10.2570451 C107.50399,10.5919469 107.728207,10.9996473 107.886801,11.4801586 C108.045396,11.9606699 108.124692,12.503057 108.124692,13.1073364 L108.124692,13.5114006 Z M106.741098,13.0964157 C106.741098,12.6523068 106.69826,12.2600772 106.612582,11.919715 C106.526905,11.5793529 106.402036,11.2945086 106.237973,11.0651737 C106.07391,10.8358387 105.872479,10.66202 105.633676,10.5437123 C105.394873,10.4254046 105.124172,10.3662517 104.821567,10.3662517 C104.526253,10.3662517 104.26011,10.4254046 104.023129,10.5437123 C103.786149,10.66202 103.584719,10.8358387 103.418832,11.0651737 C103.252946,11.2945086 103.125343,11.5793529 103.03602,11.919715 C102.946696,12.2600772 102.902035,12.6523068 102.902035,13.0964157 L102.902035,13.5114006 C102.902035,13.9555096 102.946696,14.3486492 103.03602,14.6908315 C103.125343,15.0330138 103.253858,15.3196781 103.421567,15.5508332 C103.589276,15.7819882 103.792529,15.956717 104.031332,16.0750247 C104.270136,16.1933324 104.53719,16.2524853 104.832504,16.2524853 C105.445007,16.2524853 105.916227,16.0195137 106.246176,15.5535633 C106.576126,15.087613 106.741098,14.4068989 106.741098,13.5114006 L106.741098,13.0964157 Z M115.819223,17.279027 L114.435629,17.279027 L110.88641,11.6385081 L110.88641,17.279027 L109.502817,17.279027 L109.502817,9.32878935 L110.88641,9.32878935 L114.446567,14.9911496 L114.446567,9.32878935 L115.819223,9.32878935 L115.819223,17.279027 Z" id="GET-IT-ON" fill="#FFFFFF"></path>
                </g>
            </g>
        </g>
    </g>
</svg>