<?xml version="1.0" encoding="UTF-8" standalone="no"?>
<svg width="214px" height="54px" viewBox="0 0 214 54" version="1.1" xmlns="http://www.w3.org/2000/svg" xmlns:xlink="http://www.w3.org/1999/xlink" xmlns:sketch="http://www.bohemiancoding.com/sketch/ns">
    <!-- Generator: Sketch 3.3 (11970) - http://www.bohemiancoding.com/sketch -->
    <title>Group</title>
    <desc>Created with Sketch.</desc>
    <defs></defs>
    <g id="Page-1" stroke="none" stroke-width="1" fill="none" fill-rule="evenodd" sketch:type="MSPage">
        <g id="CEX-Mobile-Page" sketch:type="MSArtboardGroup" transform="translate(-775.000000, -488.000000)">
            <g id="Group" sketch:type="MSLayerGroup" transform="translate(775.000000, 488.000000)">
                <g id="Button---Apple-Copy" sketch:type="MSShapeGroup">
                    <rect id="Button" fill="#2D2D2D" x="7" y="0" width="207" height="53.8169935" rx="6.7200001"></rect>
                    <path d="M0,7.00802483 C0,3.13759959 3.13086715,0 6.99122634,0 L53.9,0 L53.9,53.8169935 L6.99122634,53.8169935 C3.13007865,53.8169935 0,50.6909479 0,46.8089686 L0,7.00802483 Z" id="blue" fill="#1D1D1D"></path>
                </g>
                <g id="Group-Copy-3" transform="translate(12.250000, 7.338681)"></g>
                <g id="Shape-Copy-57" transform="translate(9.184848, 9.454545)" sketch:type="MSShapeGroup">
                    <path d="M7.49387159,19.3469676 L7.49387159,16.3673493 C7.49387159,16.0943458 7.70891818,15.8711123 7.97240291,15.8711123 L13.0223708,15.8711123 L10.8237007,19.8436926 L7.97240291,19.8436926 C7.70891818,19.8436926 7.49387159,19.6209471 7.49387159,19.3469676 L7.49387159,19.3469676 Z M11.0911635,25.4481952 L9.47960104,26.5865641 C9.26268244,26.7402658 9.10941202,26.6429214 9.13936411,26.3716256 L9.3544107,24.4237609 C9.38436278,24.1524651 9.59543136,24.0417022 9.82358198,24.1773501 L11.0708054,24.9202419 C11.298722,25.0563778 11.3080821,25.2949814 11.0911635,25.4481952 L11.0911635,25.4481952 Z M11.4782005,24.3503256 L10.2309771,23.6071898 C10.0028265,23.4712979 9.92256425,23.1668221 10.0552426,22.9299262 L15.8306125,12.4918694 C15.9616528,12.2547296 16.2569616,12.1715355 16.4848782,12.3091351 L17.7321017,13.0503191 C17.9602523,13.1879188 18.0386425,13.4926386 17.9078361,13.7290466 L12.1324663,24.1678353 C12.00166,24.4044872 11.7061171,24.4857295 11.4782005,24.3503256 L11.4782005,24.3503256 Z M15.8736686,19.8436926 L18.0723386,15.8711123 L19.3382821,15.8711123 L21.123707,19.8436926 L15.8736686,19.8436926 L15.8736686,19.8436926 Z M23.0345562,21.0291479 C22.5354328,20.7693187 20.048708,14.8137418 19.4112903,13.2598903 C18.7736385,11.7060387 16.8478132,7.56975381 17.4707229,7.24795601 C17.9139202,7.01715941 19.5048905,10.2741727 20.6975918,12.2296006 C21.8886551,14.1850284 24.3791239,19.2269338 24.6856647,19.8009977 C24.9905676,20.3767693 24.3922279,20.8564164 24.059479,21.0001153 C23.7264961,21.1438143 23.5336796,21.2870253 23.0345562,21.0291479 L23.0345562,21.0291479 Z M24.6688167,23.7665029 L23.9172066,22.5344492 C23.7620642,22.2782796 23.8425604,21.9618492 24.0948131,21.8266892 L24.8108551,21.4443866 C25.0633418,21.3104465 25.3792426,21.4190136 25.513793,21.6871378 L26.1065166,22.8703973 C26.241301,23.1380335 26.1495727,23.4815447 25.9064461,23.6328068 L25.3942187,23.950701 C25.151092,24.1039148 24.8239591,24.0204767 24.6688167,23.7665029 L24.6688167,23.7665029 Z M27.4340023,26.9981432 C27.2769878,26.4762892 26.0784365,26.4416453 25.5418731,25.6555706 C25.0034376,24.8721796 25.4485068,24.4686515 25.6354733,24.2822577 C27.8116793,23.0099487 27.4340023,26.9981432 27.4340023,26.9981432 L27.4340023,26.9981432 Z M28.5539293,19.3469676 C28.5539293,19.6209471 28.3388827,19.8436926 28.075398,19.8436926 L25.5474891,19.8436926 C25.519643,19.6904788 25.4744809,19.537265 25.3979627,19.3935661 C25.3324425,19.2713366 25.166068,18.9417317 24.9341734,18.4820903 C24.5995525,17.818733 24.1191492,16.8701736 23.6048158,15.8711123 L28.075164,15.8711123 C28.3386487,15.8711123 28.5536953,16.0943458 28.5536953,16.3673493 L28.5536953,19.3469676 L28.5539293,19.3469676 Z" fill="#FFFFFF"></path>
                    <ellipse id="Oval-32" stroke="#FFFFFF" stroke-width="2.1" cx="17.784188" cy="17.7072002" rx="17.784188" ry="17.7072002"></ellipse>
                </g>
                <g id="Group-Copy" transform="translate(71.400000, 23.718869)" fill="#FFFFFF" sketch:type="MSShapeGroup">
                    <path d="M15.8755878,18.7868533 L12.7112847,18.7868533 L10.9779544,13.3486268 L4.95309896,13.3486268 L3.30197645,18.7868533 L0.221274454,18.7868533 L6.19039582,0.272676484 L9.87720608,0.272676484 L15.8755878,18.7868533 L15.8755878,18.7868533 Z M10.4554473,11.0670481 L8.88792593,6.23260535 C8.722117,5.73872702 8.41139943,4.57567834 7.95298651,2.74485052 L7.89725242,2.74485052 C7.71472327,3.53227343 7.42072593,4.69532211 7.01665375,6.23260535 L5.47699943,11.0670481 L10.4554473,11.0670481 L10.4554473,11.0670481 Z" id="Shape"></path>
                    <path d="M31.2261504,11.9476819 C31.2261504,14.2181309 30.6116821,16.0127874 29.3827453,17.33026 C28.281997,18.5030471 26.9151183,19.0887451 25.2835028,19.0887451 C23.5223054,19.0887451 22.2571415,18.4571373 21.4866177,17.1939218 L21.4308836,17.1939218 L21.4308836,24.2264709 L18.4602564,24.2264709 L18.4602564,9.83165669 C18.4602564,8.40427877 18.4226359,6.93933827 18.3501816,5.4368352 L20.9627172,5.4368352 L21.1285261,7.55286036 L21.1842602,7.55286036 C22.1749337,5.95853765 23.6783609,5.16276751 25.695935,5.16276751 C27.2732099,5.16276751 28.5899278,5.78463684 29.6433022,7.0297667 C30.6994632,8.27628777 31.2261504,9.91512908 31.2261504,11.9476819 L31.2261504,11.9476819 Z M28.1997892,12.056196 C28.1997892,10.756809 27.9071852,9.68558 27.3191905,8.84250883 C26.6768551,7.96326629 25.81437,7.52364502 24.7331286,7.52364502 C24.0002253,7.52364502 23.3342028,7.76849738 22.7392414,8.25124605 C22.1428866,8.73816834 21.752748,9.37394974 21.5702188,10.1613726 C21.4782575,10.5286512 21.4322769,10.8291518 21.4322769,11.0656569 L21.4322769,13.2915874 C21.4322769,14.2626496 21.7304543,15.0820702 22.3268091,15.7512406 C22.9231639,16.4204109 23.6978678,16.7543005 24.6509208,16.7543005 C25.7697827,16.7543005 26.6406279,16.3230265 27.2634564,15.4632608 C27.8876783,14.602104 28.1997892,13.4668794 28.1997892,12.056196 L28.1997892,12.056196 Z" id="Shape"></path>
                    <path d="M46.6045801,11.9476819 C46.6045801,14.2181309 45.9901117,16.0127874 44.7597816,17.33026 C43.6604266,18.5030471 42.293548,19.0887451 40.6619324,19.0887451 C38.900735,19.0887451 37.6355711,18.4571373 36.8664406,17.1939218 L36.8107066,17.1939218 L36.8107066,24.2264709 L33.8400794,24.2264709 L33.8400794,9.83165669 C33.8400794,8.40427877 33.8024589,6.93933827 33.7300046,5.4368352 L36.3425402,5.4368352 L36.5083491,7.55286036 L36.5640832,7.55286036 C37.5533633,5.95853765 39.0567905,5.16276751 41.075758,5.16276751 C42.6516395,5.16276751 43.9683575,5.78463684 45.0245185,7.0297667 C46.0764995,8.27628777 46.6045801,9.91512908 46.6045801,11.9476819 L46.6045801,11.9476819 Z M43.5782188,12.056196 C43.5782188,10.756809 43.2842215,9.68558 42.6962268,8.84250883 C42.0538914,7.96326629 41.194193,7.52364502 40.1115582,7.52364502 C39.3772615,7.52364502 38.7126325,7.76849738 38.1162777,8.25124605 C37.5199229,8.73816834 37.1311776,9.37394974 36.9486484,10.1613726 C36.8580805,10.5286512 36.8107066,10.8291518 36.8107066,11.0656569 L36.8107066,13.2915874 C36.8107066,14.2626496 37.108884,15.0820702 37.702452,15.7512406 C38.2988068,16.4190197 39.0735107,16.7543005 40.0293504,16.7543005 C41.1482123,16.7543005 42.0190575,16.3230265 42.641886,15.4632608 C43.2661079,14.602104 43.5782188,13.4668794 43.5782188,12.056196 L43.5782188,12.056196 Z" id="Shape"></path>
                    <path d="M63.7985478,13.5948704 C63.7985478,15.1697162 63.2509603,16.4510175 62.1516053,17.4401653 C60.9435689,18.5211328 59.2617926,19.0609209 57.1007031,19.0609209 C55.1054226,19.0609209 53.5058541,18.6769479 52.295031,17.9076107 L52.983347,15.4354367 C54.2875248,16.2228596 55.7184976,16.6179622 57.2776589,16.6179622 C58.3965208,16.6179622 59.267366,16.3647627 59.8929812,15.8611459 C60.5158097,15.3575291 60.8265273,14.6814027 60.8265273,13.8383316 C60.8265273,13.08708 60.5701504,12.454081 60.0560034,11.9407258 C59.5446431,11.4273706 58.6905181,10.9501868 57.4978085,10.5091743 C54.2512976,9.30021579 52.6294355,7.52920985 52.6294355,5.20033008 C52.6294355,3.67835012 53.1979233,2.43043784 54.3362921,1.45937567 C55.4704809,0.486922293 56.9836615,0.00139120655 58.875834,0.00139120655 C60.5631837,0.00139120655 61.9648961,0.294935789 63.083758,0.880633746 L62.3411012,3.29855073 C61.296087,2.73093846 60.1145242,2.44713232 58.7922329,2.44713232 C57.7472186,2.44713232 56.9307142,2.70450553 56.3455062,3.21646954 C55.8508661,3.6741765 55.6028494,4.23205033 55.6028494,4.89287344 C55.6028494,5.62464808 55.8856999,6.22982293 56.4541877,6.70561557 C56.9488277,7.14523684 57.84754,7.62102948 59.1517178,8.1343847 C60.7471062,8.77573092 61.9189155,9.52559125 62.6727191,10.3853569 C63.423736,11.2423401 63.7985478,12.3149604 63.7985478,13.5948704 L63.7985478,13.5948704 Z" id="Shape"></path>
                    <path d="M73.6202883,7.66276568 L70.3459104,7.66276568 L70.3459104,14.144397 C70.3459104,15.7929768 70.9227582,16.616571 72.0792406,16.616571 C72.6101079,16.616571 73.0504072,16.5706612 73.3987453,16.4788416 L73.4809531,18.731205 C72.8957451,18.9496244 72.1252213,19.0595297 71.1707749,19.0595297 C69.9975723,19.0595297 69.0807464,18.7019897 68.4189041,17.9883007 C67.7598484,17.2732205 67.4282306,16.0740005 67.4282306,14.3892493 L67.4282306,7.65998327 L65.4775373,7.65998327 L65.4775373,5.43405279 L67.4282306,5.43405279 L67.4282306,2.98970288 L70.3459104,2.11046034 L70.3459104,5.43405279 L73.6202883,5.43405279 L73.6202883,7.66276568 L73.6202883,7.66276568 Z" id="Shape"></path>
                    <path d="M88.394003,12.0019389 C88.394003,14.0539686 87.8060084,15.7387197 86.6328057,17.0561923 C85.4024756,18.4126187 83.7694667,19.0887451 81.7337789,19.0887451 C79.7719388,19.0887451 78.2099909,18.4390516 77.0451483,17.1396647 C75.8803058,15.8402778 75.2978845,14.2000453 75.2978845,12.2231408 C75.2978845,10.1544166 75.897026,8.45992703 77.0994891,7.14245443 C78.2991654,5.82359062 79.9182408,5.16415871 81.9539286,5.16415871 C83.9157687,5.16415871 85.4944368,5.81385217 86.6857531,7.1146303 C87.8255153,8.37645464 88.394003,10.0055575 88.394003,12.0019389 L88.394003,12.0019389 Z M85.3119077,12.0979322 C85.3119077,10.8667144 85.0485641,9.81078859 84.5149102,8.93015485 C83.8920817,7.86449063 83.0017295,7.33304973 81.8480338,7.33304973 C80.6539309,7.33304973 79.7468585,7.86588184 79.12403,8.93015485 C78.5903761,9.8121798 78.3270325,10.8848 78.3270325,12.1535804 C78.3270325,13.3847982 78.5903761,14.440724 79.12403,15.3199665 C79.7663654,16.3856307 80.6636843,16.9170717 81.8215601,16.9170717 C82.9557489,16.9170717 83.846101,16.3745011 84.4884365,15.2921424 C85.0360239,14.3948142 85.3119077,13.3277588 85.3119077,12.0979322 L85.3119077,12.0979322 Z" id="Shape"></path>
                    <path d="M98.0499347,8.04534748 C97.7559373,7.99109042 97.442433,7.96326629 97.1136019,7.96326629 C96.0685877,7.96326629 95.2604433,8.35697775 94.6919556,9.14579186 C94.1973155,9.84139514 93.9492988,10.7206377 93.9492988,11.7821283 L93.9492988,18.7868533 L90.980065,18.7868533 L91.007932,9.64106139 C91.007932,8.10238695 90.9703115,6.70144195 90.8964638,5.4382264 L93.4839191,5.4382264 L93.5926006,7.99248163 L93.6748084,7.99248163 C93.9883126,7.1146303 94.4829527,6.40789737 95.1601219,5.87784767 C95.8219643,5.40066383 96.536754,5.16276751 97.3072779,5.16276751 C97.5817683,5.16276751 97.829785,5.1822444 98.0499347,5.21702456 L98.0499347,8.04534748 L98.0499347,8.04534748 Z" id="Shape"></path>
                    <path d="M111.335549,11.4802365 C111.335549,12.0116774 111.300715,12.4596459 111.226868,12.8255332 L102.314986,12.8255332 C102.34982,14.144397 102.780366,15.1530217 103.608017,15.848625 C104.359034,16.4704943 105.330201,16.7821246 106.52291,16.7821246 C107.842415,16.7821246 109.046271,16.5720524 110.128906,16.1505168 L110.594286,18.2095025 C109.329122,18.7604203 107.835448,19.034488 106.111871,19.034488 C104.038563,19.034488 102.411127,18.4251396 101.226778,17.2078338 C100.045215,15.9905281 99.4530405,14.3558604 99.4530405,12.3052219 C99.4530405,10.2921461 100.003415,8.61574217 101.105556,7.27879267 C102.259252,5.85141475 103.818413,5.13772579 105.780253,5.13772579 C107.70726,5.13772579 109.1661,5.85141475 110.156773,7.27879267 C110.94123,8.41262601 111.335549,9.81496221 111.335549,11.4802365 L111.335549,11.4802365 Z M108.502864,10.7108992 C108.522371,9.83165669 108.328695,9.07205791 107.926016,8.43071169 C107.411869,7.60572621 106.621838,7.19392907 105.55871,7.19392907 C104.587544,7.19392907 103.797513,7.59598776 103.194191,8.40288756 C102.699551,9.04423378 102.405554,9.81357101 102.314986,10.709508 L108.502864,10.709508 L108.502864,10.7108992 Z" id="Shape"></path>
                </g>
                <g id="Group-Copy-2" transform="translate(72.450000, 8.338681)" fill="#FFFFFF" sketch:type="MSShapeGroup">
                    <path d="M8.42978158,5.57734706 C8.42978158,7.21479717 7.93792821,8.44740617 6.95561481,9.27517407 C6.04575575,10.0389465 4.75272479,10.4215283 3.07791529,10.4215283 C2.2474773,10.4215283 1.53686762,10.3853569 0.941906173,10.3130142 L0.941906173,1.36616483 C1.71800342,1.24095624 2.55401481,1.17696074 3.45690712,1.17696074 C5.05229554,1.17696074 6.25475859,1.52337117 7.06568965,2.21619203 C7.97415537,2.99944132 8.42978158,4.1193626 8.42978158,5.57734706 L8.42978158,5.57734706 Z M6.89012726,5.61769205 C6.89012726,4.55620145 6.60867009,3.74234562 6.04575575,3.17473335 C5.48284141,2.60851228 4.66076353,2.32470615 3.57812877,2.32470615 C3.11832251,2.32470615 2.7267905,2.35531269 2.40213941,2.41930819 L2.40213941,9.22091702 C2.58188186,9.24874115 2.91071301,9.26126201 3.38863286,9.26126201 C4.50610142,9.26126201 5.36858651,8.95102294 5.97608813,8.33054482 C6.58358974,7.7100667 6.89012726,6.80578244 6.89012726,5.61769205 L6.89012726,5.61769205 Z" id="Shape"></path>
                    <path d="M16.5934329,7.00750739 C16.5934329,8.01613214 16.3050089,8.84250883 15.7281611,9.49081109 C15.1234462,10.157199 14.3222686,10.4896974 13.3218416,10.4896974 C12.3576418,10.4896974 11.5899047,10.1711111 11.0172368,9.53115608 C10.4459624,8.89259227 10.1603252,8.08708368 10.1603252,7.1160215 C10.1603252,6.10044072 10.4543225,5.267108 11.0451039,4.62019695 C11.6358853,3.97328591 12.4300961,3.64913478 13.4305231,3.64913478 C14.3947229,3.64913478 15.1694268,3.96772108 15.7560281,4.60628489 C16.313369,5.22676301 16.5934329,6.02809798 16.5934329,7.00750739 L16.5934329,7.00750739 Z M15.0788589,7.05480842 C15.0788589,6.44963357 14.9478838,5.93071352 14.6873269,5.49804829 C14.3807894,4.97495462 13.9446701,4.71340779 13.3775757,4.71340779 C12.7909744,4.71340779 12.3451016,4.97495462 12.0385641,5.49804829 C11.7766139,5.93071352 11.6470321,6.45798081 11.6470321,7.08124134 C11.6470321,7.68641619 11.7780072,8.20533623 12.0385641,8.63800147 C12.3548551,9.16109513 12.7951544,9.42264196 13.3636422,9.42264196 C13.9209831,9.42264196 14.3584957,9.15692151 14.6733934,8.6240894 C14.9437037,8.18307693 15.0788589,7.65998327 15.0788589,7.05480842 L15.0788589,7.05480842 Z" id="Shape"></path>
                    <path d="M27.5396087,3.78269061 L25.4844141,10.3408383 L24.1467958,10.3408383 L23.2954575,7.49303848 C23.0794879,6.78213193 22.9039255,6.075399 22.767377,5.3742309 L22.7409033,5.3742309 C22.6141083,6.0948759 22.4385459,6.80021762 22.2128228,7.49303848 L21.3085371,10.3408383 L19.955592,10.3408383 L18.0230123,3.78269061 L19.5236528,3.78269061 L20.2663096,6.90038449 C20.446052,7.63772396 20.5937474,8.34028327 20.7121823,9.00528 L20.738656,9.00528 C20.8473375,8.45714462 21.02708,7.75875893 21.2806701,6.91429655 L22.2128228,3.78408182 L23.4027457,3.78408182 L24.2958845,6.84751864 C24.5118541,7.59459656 24.6874165,8.31385034 24.8225717,9.00667121 L24.8629789,9.00667121 C24.9619069,8.33193603 25.1109956,7.61268224 25.3088517,6.84751864 L26.1058492,3.78408182 L27.5396087,3.78408182 L27.5396087,3.78269061 Z" id="Shape"></path>
                    <path d="M35.1096919,10.3408383 L33.6494587,10.3408383 L33.6494587,6.5845806 C33.6494587,5.42709675 33.2091594,4.84835483 32.325774,4.84835483 C31.8924414,4.84835483 31.54271,5.00695237 31.2710063,5.32553867 C31.0020893,5.64412497 30.8655407,6.01975074 30.8655407,6.44963357 L30.8655407,10.3394471 L29.4053075,10.3394471 L29.4053075,5.65664583 C29.4053075,5.08068632 29.3871939,4.45603458 29.3523601,3.7799082 L30.6356376,3.7799082 L30.7039119,4.80522742 L30.7443191,4.80522742 C30.9143081,4.48664112 31.1678982,4.22370309 31.5009094,4.0136309 C31.8966215,3.76877854 32.3397075,3.64496116 32.8245941,3.64496116 C33.4376691,3.64496116 33.9476361,3.84251249 34.3531016,4.23900636 C34.8574952,4.72453744 35.1096919,5.44935606 35.1096919,6.41207099 L35.1096919,10.3408383 L35.1096919,10.3408383 Z" id="Shape"></path>
                    <path d="M39.1364802,10.3408383 L37.6776403,10.3408383 L37.6776403,0.773510842 L39.1364802,0.773510842 L39.1364802,10.3408383 L39.1364802,10.3408383 Z" id="Shape"></path>
                    <path d="M47.733464,7.00750739 C47.733464,8.01613214 47.4450401,8.84250883 46.8681922,9.49081109 C46.2634773,10.157199 45.4609064,10.4896974 44.4618727,10.4896974 C43.4962796,10.4896974 42.7285425,10.1711111 42.157268,9.53115608 C41.5859935,8.89259227 41.3003563,8.08708368 41.3003563,7.1160215 C41.3003563,6.10044072 41.5943537,5.267108 42.185135,4.62019695 C42.7759164,3.97328591 43.5701273,3.64913478 44.5691609,3.64913478 C45.534754,3.64913478 46.3080646,3.96772108 46.8960593,4.60628489 C47.4534002,5.22676301 47.733464,6.02809798 47.733464,7.00750739 L47.733464,7.00750739 Z M46.2174967,7.05480842 C46.2174967,6.44963357 46.0865216,5.93071352 45.8259647,5.49804829 C45.5208205,4.97495462 45.0833079,4.71340779 44.5176068,4.71340779 C43.9296122,4.71340779 43.4837394,4.97495462 43.1785953,5.49804829 C42.916645,5.93071352 42.7870632,6.45798081 42.7870632,7.08124134 C42.7870632,7.68641619 42.9180384,8.20533623 43.1785953,8.63800147 C43.4948862,9.16109513 43.9351856,9.42264196 44.5036733,9.42264196 C45.0610142,9.42264196 45.4971335,9.15692151 45.8120311,8.6240894 C46.0837349,8.18307693 46.2174967,7.65998327 46.2174967,7.05480842 L46.2174967,7.05480842 Z" id="Shape"></path>
                    <path d="M54.800547,10.3408383 L53.4894025,10.3408383 L53.380721,9.58541313 L53.3403138,9.58541313 C52.8916543,10.1878056 52.2521056,10.4896974 51.4216676,10.4896974 C50.8016258,10.4896974 50.300019,10.2907549 49.9224205,9.89565219 C49.5796558,9.5367209 49.4082735,9.0901436 49.4082735,8.5600939 C49.4082735,7.75875893 49.7426781,7.14801926 50.4156672,6.72509246 C51.0872631,6.30216567 52.0319559,6.0948759 53.2483525,6.10461434 L53.2483525,5.98218817 C53.2483525,5.1182489 52.7941197,4.68697487 51.8842606,4.68697487 C51.2363518,4.68697487 50.6650773,4.84974603 50.1718306,5.17250595 L49.8750465,4.21535585 C50.4853349,3.83833887 51.2391385,3.64913478 52.1280972,3.64913478 C53.8447073,3.64913478 54.7057991,4.55341904 54.7057991,6.36198755 L54.7057991,8.77712213 C54.7057991,9.43238041 54.7378462,9.95408287 54.800547,10.3408383 L54.800547,10.3408383 Z M53.2845797,8.08708368 L53.2845797,7.07567651 C51.6738644,7.04785238 50.8685067,7.48886486 50.8685067,8.39732274 C50.8685067,8.73955955 50.960468,8.99554155 51.1485706,9.16665996 C51.3366731,9.33777837 51.5763297,9.42264196 51.861967,9.42264196 C52.182438,9.42264196 52.4820087,9.32108389 52.7551058,9.11935894 C53.0295962,8.91624278 53.1981918,8.65886957 53.2608927,8.34306568 C53.2762196,8.27211415 53.2845797,8.18585934 53.2845797,8.08708368 L53.2845797,8.08708368 Z" id="Shape"></path>
                    <path d="M63.0979601,10.3408383 L61.8021425,10.3408383 L61.7338682,9.28769493 L61.693461,9.28769493 C61.2796353,10.0890299 60.5745991,10.4896974 59.5839255,10.4896974 C58.7925014,10.4896974 58.1334458,10.1794583 57.6109387,9.55898021 C57.0884315,8.93850209 56.8278746,8.13299349 56.8278746,7.14384564 C56.8278746,6.08235504 57.1107252,5.22258939 57.6792129,4.5659399 C58.2295871,3.95380902 58.9039696,3.64774357 59.7065406,3.64774357 C60.5885326,3.64774357 61.2057877,3.94407057 61.5569124,4.53811577 L61.5847795,4.53811577 L61.5847795,0.773510842 L63.0464061,0.773510842 L63.0464061,8.57400597 C63.0464061,9.21256978 63.0631263,9.80105015 63.0979601,10.3408383 L63.0979601,10.3408383 Z M61.5847795,7.57511967 L61.5847795,6.48163132 C61.5847795,6.29242723 61.570846,6.13939451 61.5443723,6.02253316 C61.4621645,5.67194911 61.2852087,5.37701332 61.0162917,5.139117 C60.744588,4.90122068 60.4171502,4.78157691 60.0395518,4.78157691 C59.494751,4.78157691 59.0683852,4.99721393 58.7548809,5.42987917 C58.4441633,5.8625444 58.2867145,6.4148534 58.2867145,7.08958858 C58.2867145,7.73789083 58.4358032,8.26376691 58.735374,8.66860801 C59.051665,9.09988205 59.4780308,9.31551906 60.0116847,9.31551906 C60.4909979,9.31551906 60.8741698,9.13605342 61.1653804,8.77573092 C61.4468376,8.44323255 61.5847795,8.04256507 61.5847795,7.57511967 L61.5847795,7.57511967 Z" id="Shape"></path>
                    <path d="M75.586577,7.00750739 C75.586577,8.01613214 75.2981531,8.84250883 74.7213052,9.49081109 C74.1165903,10.157199 73.3168061,10.4896974 72.3149858,10.4896974 C71.3521793,10.4896974 70.5844422,10.1711111 70.010381,9.53115608 C69.4391066,8.89259227 69.1534693,8.08708368 69.1534693,7.1160215 C69.1534693,6.10044072 69.4474667,5.267108 70.0382481,4.62019695 C70.6290294,3.97328591 71.4232403,3.64913478 72.4250606,3.64913478 C73.387867,3.64913478 74.1639643,3.96772108 74.7491723,4.60628489 C75.3065132,5.22676301 75.586577,6.02809798 75.586577,7.00750739 L75.586577,7.00750739 Z M74.0733964,7.05480842 C74.0733964,6.44963357 73.9424213,5.93071352 73.6818644,5.49804829 C73.3739335,4.97495462 72.9392076,4.71340779 72.3707198,4.71340779 C71.7855119,4.71340779 71.3396391,4.97495462 71.0317083,5.49804829 C70.769758,5.93071352 70.6401763,6.45798081 70.6401763,7.08124134 C70.6401763,7.68641619 70.7711514,8.20533623 71.0317083,8.63800147 C71.3479992,9.16109513 71.7882986,9.42264196 72.3567863,9.42264196 C72.9141273,9.42264196 73.3530332,9.15692151 73.6679309,8.6240894 C73.9368479,8.18307693 74.0733964,7.65998327 74.0733964,7.05480842 L74.0733964,7.05480842 Z" id="Shape"></path>
                    <path d="M83.4381174,10.3408383 L81.9792775,10.3408383 L81.9792775,6.5845806 C81.9792775,5.42709675 81.5389782,4.84835483 80.6541994,4.84835483 C80.2208669,4.84835483 79.8711354,5.00695237 79.6008251,5.32553867 C79.3305147,5.64412497 79.1953595,6.01975074 79.1953595,6.44963357 L79.1953595,10.3394471 L77.733733,10.3394471 L77.733733,5.65664583 C77.733733,5.08068632 77.7170127,4.45603458 77.6821789,3.7799082 L78.9640631,3.7799082 L79.0323373,4.80522742 L79.0727445,4.80522742 C79.2441269,4.48664112 79.497717,4.22370309 79.8293349,4.0136309 C80.2264403,3.76877854 80.668133,3.64496116 81.1544129,3.64496116 C81.7660946,3.64496116 82.2760615,3.84251249 82.6815271,4.23900636 C83.187314,4.72453744 83.4381174,5.44935606 83.4381174,6.41207099 L83.4381174,10.3408383 L83.4381174,10.3408383 Z" id="Shape"></path>
                    <path d="M93.2654313,4.87478775 L91.6575028,4.87478775 L91.6575028,8.06065075 C91.6575028,8.87033296 91.94314,9.27517407 92.508841,9.27517407 C92.7707913,9.27517407 92.9881542,9.25291477 93.1595366,9.20700495 L93.1971571,10.3130142 C92.9087331,10.4215283 92.5297413,10.4757853 92.0629683,10.4757853 C91.4861204,10.4757853 91.037461,10.3004933 90.7128099,9.94990925 C90.3867654,9.5993252 90.2251366,9.00945362 90.2251366,8.18168572 L90.2251366,4.87478775 L89.2651168,4.87478775 L89.2651168,3.78269061 L90.2251366,3.78269061 L90.2251366,2.58068815 L91.6561094,2.14941412 L91.6561094,3.7812994 L93.264038,3.7812994 L93.264038,4.87478775 L93.2654313,4.87478775 Z" id="Shape"></path>
                    <path d="M100.99575,10.3408383 L99.5341235,10.3408383 L99.5341235,6.61240473 C99.5341235,5.4368352 99.0938241,4.84835483 98.2118321,4.84835483 C97.5346629,4.84835483 97.0720699,5.18920043 96.8184798,5.87089164 C96.7752858,6.01418592 96.7502055,6.18947794 96.7502055,6.39537651 L96.7502055,10.3394471 L95.2913656,10.3394471 L95.2913656,0.773510842 L96.7502055,0.773510842 L96.7502055,4.72592865 L96.7780726,4.72592865 C97.2378788,4.00667486 97.8969345,3.64774357 98.7510594,3.64774357 C99.3557744,3.64774357 99.8559878,3.8452949 100.253093,4.24178877 C100.747733,4.7356671 100.99575,5.47022416 100.99575,6.44128633 L100.99575,10.3408383 L100.99575,10.3408383 Z" id="Shape"></path>
                    <path d="M108.969905,6.75152539 C108.969905,7.01307222 108.950398,7.23288285 108.915565,7.4123485 L104.536258,7.4123485 C104.555765,8.06065075 104.764768,8.55452908 105.170234,8.89676589 C105.540865,9.20283133 106.018785,9.35586405 106.603993,9.35586405 C107.251902,9.35586405 107.842683,9.25291477 108.374944,9.04562499 L108.603454,10.0584234 C107.980625,10.3283174 107.247722,10.4632645 106.39917,10.4632645 C105.382023,10.4632645 104.580846,10.1641551 104.001211,9.56593624 C103.41879,8.96771742 103.130366,8.16499124 103.130366,7.1577577 C103.130366,6.16860984 103.399283,5.34501557 103.941297,4.68836607 C104.506998,3.98719797 105.271948,3.63661392 106.237542,3.63661392 C107.182234,3.63661392 107.899811,3.98719797 108.384697,4.68836607 C108.776229,5.24484869 108.969905,5.93349594 108.969905,6.75152539 L108.969905,6.75152539 Z M107.576553,6.37450841 C107.5877,5.94184318 107.491559,5.56899982 107.293703,5.25458714 C107.040112,4.84974603 106.654154,4.64662988 106.131647,4.64662988 C105.65512,4.64662988 105.266375,4.84418121 104.969591,5.24067507 C104.727148,5.55647896 104.583632,5.93349594 104.536258,6.37450841 L107.576553,6.37450841 L107.576553,6.37450841 Z" id="Shape"></path>
                </g>
            </g>
        </g>
    </g>
</svg>